<svg viewBox="0 0 32 32" xmlns="http://www.w3.org/2000/svg">
  <circle cx="16" cy="16" r="16" fill="#000"/>
  <defs>
    <linearGradient id="sol-grad" x1="0%" y1="0%" x2="100%" y2="100%">
      <stop offset="0%" style="stop-color:#00FFA3"/>
      <stop offset="50%" style="stop-color:#03E1FF"/>
      <stop offset="100%" style="stop-color:#DC1FFF"/>
    </linearGradient>
  </defs>
  <path d="M9.5 19.8l2.3-2.4c.1-.1.3-.2.5-.2h12.2c.3 0 .5.4.3.6l-2.3 2.4c-.1.1-.3.2-.5.2H9.8c-.3 0-.5-.4-.3-.6z" fill="url(#sol-grad)"/>
  <path d="M9.5 9.4l2.3-2.4c.1-.1.3-.2.5-.2h12.2c.3 0 .5.4.3.6l-2.3 2.4c-.1.1-.3.2-.5.2H9.8c-.3 0-.5-.4-.3-.6z" fill="url(#sol-grad)"/>
  <path d="M22.5 14.6l-2.3-2.4c-.1-.1-.3-.2-.5-.2H7.5c-.3 0-.5.4-.3.6l2.3 2.4c.1.1.3.2.5.2h12.2c.3 0 .5-.4.3-.6z" fill="url(#sol-grad)"/>
</svg>
