<svg viewBox="0 0 32 32" xmlns="http://www.w3.org/2000/svg">
  <circle cx="16" cy="16" r="16" fill="#2775CA"/>
  <path d="M20.022 18.124c0-2.124-1.28-2.852-3.84-3.156-1.828-.228-2.192-.692-2.192-1.504 0-.812.604-1.328 1.828-1.328 1.104 0 1.708.352 2.016 1.24.056.16.2.264.364.264h.84c.208 0 .364-.16.364-.36v-.056c-.24-1.284-1.24-2.244-2.62-2.436v-1.428c0-.2-.152-.36-.364-.4h-.804c-.204 0-.36.152-.4.36v1.396c-1.708.228-2.804 1.328-2.804 2.772 0 2.016 1.244 2.76 3.8 3.056 1.728.256 2.232.632 2.232 1.532 0 .9-.756 1.52-1.936 1.52-1.516 0-2.04-.644-2.22-1.512-.044-.188-.2-.308-.36-.308h-.88c-.208 0-.36.16-.36.36v.056c.276 1.408 1.28 2.448 2.78 2.672v1.428c0 .2.16.36.368.4h.8c.208 0 .364-.156.4-.36v-1.428c1.752-.224 2.788-1.356 2.788-2.896z" fill="#fff"/>
</svg>
